<svg width="205" height="35" viewBox="0 0 205 35" fill="none" xmlns="http://www.w3.org/2000/svg">
<path d="M55.648 17.376C55.504 18.336 55.208 19.248 54.76 20.112C54.312 20.976 53.712 21.728 52.96 22.368C52.208 23.008 51.32 23.52 50.296 23.904C49.272 24.272 48.112 24.456 46.816 24.456C45.376 24.456 44.08 24.216 42.928 23.736C41.792 23.256 40.832 22.608 40.048 21.792C39.264 20.976 38.664 20.032 38.248 18.96C37.832 17.888 37.624 16.768 37.624 15.6C37.624 14.432 37.824 13.32 38.224 12.264C38.64 11.192 39.24 10.248 40.024 9.43202C40.808 8.61602 41.752 7.96802 42.856 7.48802C43.976 6.99202 45.248 6.74402 46.672 6.74402C48.032 6.74402 49.24 6.93602 50.296 7.32002C51.352 7.70402 52.248 8.23202 52.984 8.90402C53.736 9.57602 54.328 10.36 54.76 11.256C55.208 12.152 55.488 13.104 55.6 14.112H50.368C50.224 13.312 49.856 12.64 49.264 12.096C48.672 11.552 47.856 11.28 46.816 11.28C46.144 11.28 45.552 11.4 45.04 11.64C44.528 11.88 44.104 12.2 43.768 12.6C43.432 12.984 43.176 13.44 43 13.968C42.824 14.48 42.736 15.024 42.736 15.6C42.736 16.208 42.832 16.776 43.024 17.304C43.216 17.832 43.488 18.288 43.84 18.672C44.208 19.056 44.648 19.36 45.16 19.584C45.672 19.808 46.256 19.92 46.912 19.92C47.84 19.92 48.608 19.672 49.216 19.176C49.824 18.68 50.208 18.08 50.368 17.376H55.648Z" fill="black"/>
<path d="M67.7148 14.688L62.6748 22.848V24H57.6828V7.20002H62.6748V16.512L67.7148 8.35202V7.20002H72.7068V24H67.7148V14.688Z" fill="black"/>
<path d="M78.1079 11.472H74.6519V7.20002H86.5559V11.472H83.0999V24H78.1079V11.472Z" fill="black"/>
<path d="M98.5351 14.688L93.4951 22.848V24H88.5031V7.20002H93.4951V16.512L98.5351 8.35202V7.20002H103.527V24H98.5351V14.688Z" fill="black"/>
<path d="M105.952 21.408C105.952 21.008 106.024 20.64 106.168 20.304C106.328 19.952 106.536 19.648 106.792 19.392C107.048 19.12 107.352 18.912 107.704 18.768C108.056 18.608 108.44 18.528 108.856 18.528C109.272 18.528 109.656 18.608 110.008 18.768C110.376 18.912 110.688 19.12 110.944 19.392C111.216 19.648 111.424 19.952 111.568 20.304C111.728 20.64 111.808 21.008 111.808 21.408C111.808 21.808 111.728 22.184 111.568 22.536C111.424 22.872 111.216 23.176 110.944 23.448C110.688 23.704 110.376 23.904 110.008 24.048C109.656 24.208 109.272 24.288 108.856 24.288C108.44 24.288 108.056 24.208 107.704 24.048C107.352 23.904 107.048 23.704 106.792 23.448C106.536 23.176 106.328 22.872 106.168 22.536C106.024 22.184 105.952 21.808 105.952 21.408Z" fill="black"/>
<path d="M114.464 7.20002H122.528C123.488 7.20002 124.352 7.36802 125.12 7.70402C125.904 8.04002 126.568 8.49602 127.112 9.07202C127.672 9.63202 128.096 10.296 128.384 11.064C128.688 11.816 128.84 12.616 128.84 13.464C128.84 14.312 128.688 15.112 128.384 15.864C128.096 16.616 127.672 17.28 127.112 17.856C126.568 18.416 125.904 18.864 125.12 19.2C124.352 19.536 123.488 19.704 122.528 19.704H119.456V24H114.464V7.20002ZM121.52 15.84C122.192 15.84 122.728 15.608 123.128 15.144C123.544 14.68 123.752 14.12 123.752 13.464C123.752 12.808 123.552 12.248 123.152 11.784C122.752 11.32 122.216 11.088 121.544 11.088H119.456V15.84H121.52Z" fill="#FF7F0A"/>
<path d="M138.868 24.456C137.428 24.456 136.14 24.216 135.004 23.736C133.884 23.24 132.932 22.584 132.148 21.768C131.38 20.952 130.788 20.008 130.372 18.936C129.972 17.864 129.772 16.752 129.772 15.6C129.772 14.448 129.972 13.336 130.372 12.264C130.788 11.192 131.38 10.248 132.148 9.43202C132.932 8.61602 133.884 7.96802 135.004 7.48802C136.14 6.99202 137.428 6.74402 138.868 6.74402C140.308 6.74402 141.596 6.99202 142.732 7.48802C143.868 7.96802 144.82 8.61602 145.588 9.43202C146.372 10.248 146.964 11.192 147.364 12.264C147.78 13.336 147.988 14.448 147.988 15.6C147.988 16.752 147.78 17.864 147.364 18.936C146.964 20.008 146.372 20.952 145.588 21.768C144.82 22.584 143.868 23.24 142.732 23.736C141.596 24.216 140.308 24.456 138.868 24.456ZM138.868 19.896C139.508 19.896 140.076 19.776 140.572 19.536C141.084 19.296 141.508 18.984 141.844 18.6C142.196 18.2 142.46 17.744 142.636 17.232C142.828 16.704 142.924 16.16 142.924 15.6C142.924 15.04 142.828 14.504 142.636 13.992C142.46 13.464 142.196 13.008 141.844 12.624C141.508 12.224 141.084 11.904 140.572 11.664C140.076 11.424 139.508 11.304 138.868 11.304C138.228 11.304 137.652 11.424 137.14 11.664C136.644 11.904 136.22 12.224 135.868 12.624C135.532 13.008 135.268 13.464 135.076 13.992C134.9 14.504 134.812 15.04 134.812 15.6C134.812 16.16 134.9 16.704 135.076 17.232C135.268 17.744 135.532 18.2 135.868 18.6C136.22 18.984 136.644 19.296 137.14 19.536C137.652 19.776 138.228 19.896 138.868 19.896Z" fill="#FF7F0A"/>
<path d="M150.065 7.20002H158.129C159.089 7.20002 159.953 7.36802 160.721 7.70402C161.505 8.04002 162.169 8.49602 162.713 9.07202C163.273 9.63202 163.697 10.296 163.985 11.064C164.289 11.816 164.441 12.616 164.441 13.464C164.441 14.616 164.169 15.672 163.625 16.632C163.081 17.592 162.329 18.344 161.369 18.888L164.729 24H158.849L155.993 19.704H155.057V24H150.065V7.20002ZM157.121 15.84C157.793 15.84 158.329 15.608 158.729 15.144C159.145 14.68 159.353 14.12 159.353 13.464C159.353 12.808 159.153 12.248 158.753 11.784C158.353 11.32 157.817 11.088 157.145 11.088H155.057V15.84H157.121Z" fill="#FF7F0A"/>
<path d="M168.686 11.472H165.23V7.20002H177.134V11.472H173.678V24H168.686V11.472Z" fill="#FF7F0A"/>
<path d="M188.288 24L187.712 22.056H182.072L181.496 24H176.096L182.288 7.20002H187.52L193.856 24H188.288ZM184.904 12.24L183.128 18.432H186.68L184.904 12.24Z" fill="#FF7F0A"/>
<path d="M204.801 19.728V24H195.417V7.20002H200.409V19.728H204.801Z" fill="#FF7F0A"/>
<path fill-rule="evenodd" clip-rule="evenodd" d="M0 9.9901V26.8713C0.181518 28.0512 1.36139 30.3564 4.62871 30.1386C7.89604 29.9208 24.505 27.6881 25.8663 27.4158C27.2277 27.1436 27.5 24.9653 27.5 24.9653C22.7805 25.7822 14.4307 26.8713 12.2525 26.8713C10.0743 26.8713 8.98515 25.2376 8.98515 23.604C8.98515 23.2252 8.98027 22.4953 8.97391 21.5432C8.95282 18.388 8.91543 12.7921 8.98515 9.44554C8.98515 8.53795 9.47525 6.94059 11.4356 6.72277C12.4814 6.60657 15.2784 6.14943 18.2393 5.66551C20.8287 5.2423 23.5434 4.79861 25.3218 4.54455C25.3218 4.54455 25.3218 4 24.7772 4C24.2327 4 3.5396 6.72277 3.5396 6.72277C2.35974 6.99505 0 8.0297 0 9.9901ZM12.1011 12.9441C12.1011 12.9441 11.8288 18.662 12.1011 19.6308C12.3734 20.5996 13.6258 21.6026 16.4575 21.3847C19.1688 21.1762 23.4277 20.2292 24.263 20.0435C24.3001 20.0352 24.3304 20.0285 24.3536 20.0233C24.8981 19.9031 24.8981 19.2065 24.8981 19.2065C24.8981 19.2065 18.908 19.9031 17.8189 20.0233C16.7298 20.1436 16.1852 19.8055 16.1852 18.9342V12.3996C16.1852 11.8575 16.7152 11.7139 17.146 11.5972C17.3028 11.5547 17.4464 11.5158 17.5466 11.4625C17.6632 11.4005 17.6331 11.2767 17.5466 11.1902C17.3379 10.9814 15.9552 11.1102 14.7488 11.2225C14.3818 11.2567 14.0311 11.2893 13.7347 11.3105C13.1902 11.3105 12.1011 11.6372 12.1011 12.9441Z" fill="#FF7F0A"/>
</svg>
