<svg width="512" height="512" viewBox="0 0 512 512" fill="#000000" xmlns="http://www.w3.org/2000/svg">
<rect width="512" height="512" rx="8"/>
<path d="M256 272C264.837 272 272 264.837 272 256C272 247.163 264.837 240 256 240C247.163 240 240 247.163 240 256C240 264.837 247.163 272 256 272Z" fill="white"/>
<path fill-rule="evenodd" clip-rule="evenodd" d="M384 256C384 326.692 326.692 384 256 384C185.308 384 128 326.692 128 256C128 185.308 185.308 128 256 128C326.692 128 384 185.308 384 256ZM320 256C320 291.346 291.346 320 256 320C220.654 320 192 291.346 192 256C192 220.654 220.654 192 256 192C291.346 192 320 220.654 320 256Z" fill="white"/>
</svg>
